<svg id="Layer_1" data-name="Layer 1" xmlns="http://www.w3.org/2000/svg" viewBox="0 0 243.3 25.65"><defs><style>.cls-1{fill:#002561;}</style></defs><g id="Group_384" data-name="Group 384"><g id="Group_366" data-name="Group 366"><path id="Path_102" data-name="Path 102" class="cls-1" d="M63.63,1.45H56.21L40.36,12.32V1.45H34.88V24.22h5.48V17.39l6.2-4.24,11.07,11,0,0h7.16L50.67,10.35Z"/><path id="Path_103" data-name="Path 103" class="cls-1" d="M125,15.68a7.18,7.18,0,0,0,4-2.4,7,7,0,0,0,1.32-4.39,7.07,7.07,0,0,0-.63-3,6.85,6.85,0,0,0-1.76-2.34A8.09,8.09,0,0,0,125.15,2a11.85,11.85,0,0,0-3.64-.54H101.64V24.22h5.48V16.09h11.71l5.82,8.13h6.14l-6-8.49ZM107.12,5.6h13.74a4.55,4.55,0,0,1,3,.85,2.8,2.8,0,0,1,1.06,2.28,3,3,0,0,1-1,2.38,4.44,4.44,0,0,1-2.94.87H107.12Z"/><path id="Path_104" data-name="Path 104" class="cls-1" d="M7.14,17.17V14.75H25.88v-4.1H7.14V5.56H29.07V1.45H1.65V17.12a7,7,0,0,0,7,7.1h20.5v-4.1H10A2.94,2.94,0,0,1,7.14,17.17Z"/><path id="Path_105" data-name="Path 105" class="cls-1" d="M232.08,16.15a5,5,0,0,0-2.53-3.34,12,12,0,0,0-1.93-.89,32.48,32.48,0,0,0-7.56-1.44c-2.52-.28-4.71-.55-6.71-.84a6,6,0,0,1-2.76-1,1.52,1.52,0,0,1-.69-1.14,1.44,1.44,0,0,1,.56-1.13,5.43,5.43,0,0,1,3.06-1.19,28,28,0,0,1,13.35,1.27c.56.19,1.09.41,1.65.65l.79.32.15.06,1.88-3.78-.17-.07-.79-.34c-.56-.25-1.09-.48-1.63-.69A28,28,0,0,0,220.46.89a30.7,30.7,0,0,0-9,.55,12.55,12.55,0,0,0-5.13,2.23,5.08,5.08,0,0,0-1.9,6,5.79,5.79,0,0,0,3.31,3.06A24.34,24.34,0,0,0,215,14.4l2.4.27c1.6.18,3.26.36,4.88.57a8.58,8.58,0,0,1,3.09.93,1.78,1.78,0,0,1,1,1.14,1.73,1.73,0,0,1-.89,1.86,7.2,7.2,0,0,1-3,1.2,23.84,23.84,0,0,1-9.95-.22,15.09,15.09,0,0,1-5.6-2.33c-.15-.1-.29-.21-.44-.33l-.33-.24-2.89,3.23.17.17.1.1.14.12.5.38a19.34,19.34,0,0,0,8.24,3.2,32,32,0,0,0,5.27.42c.94,0,1.91,0,2.9-.11a22.48,22.48,0,0,0,6.17-1.24,9.4,9.4,0,0,0,4.41-3A5.55,5.55,0,0,0,232.08,16.15Z"/><path id="Path_106" data-name="Path 106" class="cls-1" d="M80.33.8c-9.56,0-16.49,5.06-16.49,12s6.93,12,16.49,12,16.49-5.06,16.49-12S89.89.8,80.33.8ZM91,12.82c0,4.58-4.47,7.91-10.63,7.91S69.69,17.4,69.69,12.82s4.47-7.9,10.64-7.9S91,8.24,91,12.82Z"/></g><path id="Path_107" data-name="Path 107" class="cls-1" d="M141.75,2.43a3.67,3.67,0,0,0-3.86-.7A3.52,3.52,0,0,0,135.67,5V24.22H141V7.76l19.17,15.49A3.67,3.67,0,0,0,164,24a3.53,3.53,0,0,0,2.23-3.26V1.45h-5.32V17.91Z"/><path id="Path_108" data-name="Path 108" class="cls-1" d="M177.57,17.17V14.75h18.75v-4.1H177.57V5.56h21.94V1.45H172.09V17.12a7,7,0,0,0,7,7.1h20.5v-4.1h-19.1A2.94,2.94,0,0,1,177.57,17.17Z"/><path id="Path_109" data-name="Path 109" class="cls-1" d="M241.65,4.52a2.72,2.72,0,0,1-.28,1.25,3.3,3.3,0,0,1-.79,1,4,4,0,0,1-1.2.69,4.33,4.33,0,0,1-1.47.25,3.92,3.92,0,0,1-1.39-.25,3.66,3.66,0,0,1-1.13-.69,3.17,3.17,0,0,1-.77-1,3.08,3.08,0,0,1-.29-1.3,2.76,2.76,0,0,1,.29-1.2,3.22,3.22,0,0,1,.78-1,3.71,3.71,0,0,1,1.16-.7A4,4,0,0,1,238,1.29a4.27,4.27,0,0,1,1.46.25,3.93,3.93,0,0,1,1.15.68,3.06,3.06,0,0,1,.77,1,2.82,2.82,0,0,1,.29,1.28m-.55,0a2.32,2.32,0,0,0-.23-1.07,2.8,2.8,0,0,0-.65-.87,3.23,3.23,0,0,0-1-.58A3.76,3.76,0,0,0,238,1.79a3.58,3.58,0,0,0-1.21.21,3.14,3.14,0,0,0-1,.58,2.75,2.75,0,0,0-.65.86,2.47,2.47,0,0,0-.24,1.08,2.54,2.54,0,0,0,.24,1.08,2.61,2.61,0,0,0,.66.88,3,3,0,0,0,1,.59,3.48,3.48,0,0,0,1.2.21,3.7,3.7,0,0,0,1.23-.21,3,3,0,0,0,1-.59,2.49,2.49,0,0,0,.66-.88,2.54,2.54,0,0,0,.24-1.08m-2.3,1.66-.76-1.44h-.56V6.18h-.83V2.68h1.4c1.12,0,1.68.35,1.68,1,0,.43-.28.74-.85.92l.88,1.55Zm-.76-1.92c.52,0,.78-.17.78-.5s-.27-.5-.82-.5h-.52v1Z"/></g></svg>